# xmcd CD database file
#
# Track frame offsets:
#	150
#	11062
#	25762
#	35680
#	50130
#	64420
#	80127
#	95340
#	108657
#	123375
#	136162
#	145395
#	158272
#	171647
#	181017
#	192925
#	205452
#	218927
#	234217
#
# Disc length: 3256 seconds
#
# Revision: 0
# Processed by: cddbd v1.5.1PL2 Copyright (c) Steve Scherf et al.
# Submitted via: CDex 1.51
#
DISCID=150cb613
DTITLE=varios - Lo mejor Del Oriente Boliviano
DYEAR=2000
DGENRE=Salsa
TTITLE0=Lunita Camba
TTITLE1=Vos sos mi dulzon
TTITLE2=Jumechi
TTITLE3=Viva Santa Cruz
TTITLE4=Mi Viejo Santa Cruz
TTITLE5=Tauchi Aguilera
TTITLE6=Carnaval Grande
TTITLE7=Aguillilo
TTITLE8=El Pauro
TTITLE9=Los Tauras
TTITLE10=Flor de Santa Cruz
TTITLE11=Guajojo
TTITLE12=Ojos Negros
TTITLE13=Chirapas
TTITLE14=En Las Playas del Beni
TTITLE15=Capricho Fatal
TTITLE16=El Negocho
TTITLE17=Piama
TTITLE18=Beni Toto Cerril
EXTD=YEAR: 2000
EXTT0=
EXTT1=
EXTT2=
EXTT3=
EXTT4=
EXTT5=
EXTT6=
EXTT7=
EXTT8=
EXTT9=
EXTT10=
EXTT11=
EXTT12=
EXTT13=
EXTT14=
EXTT15=
EXTT16=
EXTT17=
EXTT18=
PLAYORDER=
